<svg xmlns="http://www.w3.org/2000/svg" viewBox="0 0 960 720" role="img" aria-labelledby="title desc">
  <title id="title">Vermiq material lab</title>
  <desc id="desc">A custom classy 3D material and lighting lab illustration.</desc>
  <defs>
    <linearGradient id="matBg" x1="0" y1="0" x2="1" y2="1">
      <stop offset="0" stop-color="#f7f1e8"/>
      <stop offset="0.52" stop-color="#efe2c9"/>
      <stop offset="1" stop-color="#d6e9e4"/>
    </linearGradient>
    <linearGradient id="cubeA" x1="0" y1="0" x2="1" y2="1">
      <stop offset="0" stop-color="#141820"/>
      <stop offset="1" stop-color="#2f3a36"/>
    </linearGradient>
    <linearGradient id="cubeB" x1="0" y1="0" x2="1" y2="1">
      <stop offset="0" stop-color="#e35445"/>
      <stop offset="1" stop-color="#f0d7a7"/>
    </linearGradient>
  </defs>
  <rect width="960" height="720" rx="34" fill="url(#matBg)"/>
  <g opacity="0.34" stroke="#121722" stroke-width="2">
    <path d="M103 558h754M150 498h660M202 438h556M253 378h454"/>
  </g>
  <g transform="translate(196 160)">
    <path d="M0 242 214 118l242 137-215 124Z" fill="#ffffff" opacity="0.76"/>
    <path d="M115 200 241 128l142 80-128 74Z" fill="url(#cubeA)"/>
    <path d="M115 200v-92l126-72 142 80v92" fill="none" stroke="#121722" stroke-width="8" stroke-linejoin="round"/>
    <path d="M241 128V36M115 108l140 82 128-74" fill="none" stroke="#f0d7a7" stroke-width="7" stroke-linecap="round" stroke-linejoin="round"/>
  </g>
  <g transform="translate(534 204)">
    <path d="M0 212 144 129l162 92-145 84Z" fill="#111722" opacity="0.18"/>
    <path d="M60 160 158 103l110 62-99 58Z" fill="url(#cubeB)"/>
    <path d="M60 160V88l98-56 110 62v71" fill="none" stroke="#141820" stroke-width="7" stroke-linejoin="round"/>
    <path d="M158 103V32M60 88l109 64 99-58" fill="none" stroke="#ffffff" stroke-width="5" stroke-linecap="round" stroke-linejoin="round" opacity="0.82"/>
  </g>
  <g transform="translate(132 92)">
    <rect width="160" height="48" rx="24" fill="#121722"/>
    <path d="M32 24h96" stroke="#f0d7a7" stroke-width="10" stroke-linecap="round"/>
  </g>
  <g transform="translate(650 86)">
    <rect width="196" height="58" rx="29" fill="#ffffff" opacity="0.86"/>
    <rect x="24" y="18" width="38" height="22" rx="11" fill="#e35445"/>
    <rect x="74" y="18" width="38" height="22" rx="11" fill="#2ac7b8"/>
    <rect x="124" y="18" width="38" height="22" rx="11" fill="#121722"/>
  </g>
</svg>
